<?xml version="1.0" encoding="UTF-8"?>
<svg id="SVGDoc" width="18" height="24" xmlns="http://www.w3.org/2000/svg" version="1.1" xmlns:xlink="http://www.w3.org/1999/xlink" xmlns:avocode="https://avocode.com/" viewBox="0 0 18 24"><defs></defs><desc>Generated with Avocode.</desc><g><g><title>icon-cart</title><path d="M17.99426,5.9972v14.99796c0,1.65596 -1.34262,2.99909 -2.99881,2.99909h-11.99364c-1.65596,0 -2.99847,-1.34313 -2.99847,-2.99909v-14.99796c0,-1.65596 1.34251,-2.99868 2.99847,-2.99868h1.49918c0,-1.65679 2.01347,-3.00034 4.49776,-3.00034c2.48428,0 4.49753,1.34355 4.49753,3.00034h1.49918c1.65619,0 2.99881,1.34272 2.99881,2.99868zM6.00027,2.99853h5.99682c0,-1.03612 -1.34205,-1.50017 -2.99835,-1.50017c-1.65607,0 -2.99847,0.46405 -2.99847,1.50017zM16.49496,19.49541h-14.99256v1.49975c0,0.82798 0.6712,1.49892 1.4994,1.49892h11.99364c0.82809,0 1.49952,-0.67094 1.49952,-1.49892zM16.49496,5.9972c0,-0.8284 -0.67097,-1.49975 -1.49952,-1.49975h-1.49918v4.50009h-1.49918v-4.50009h-5.99682v4.50009h-1.49929v-4.50009h-1.49918c-0.82821,0 -1.4994,0.67136 -1.4994,1.49975v11.99803h14.99256z" fill="#000000" fill-opacity="1"></path><path d="M17.99426,5.9972v14.99796c0,1.65596 -1.34262,2.99909 -2.99881,2.99909h-11.99364c-1.65596,0 -2.99847,-1.34313 -2.99847,-2.99909v-14.99796c0,-1.65596 1.34251,-2.99868 2.99847,-2.99868h1.49918c0,-1.65679 2.01347,-3.00034 4.49776,-3.00034c2.48428,0 4.49753,1.34355 4.49753,3.00034h1.49918c1.65619,0 2.99881,1.34272 2.99881,2.99868zM6.00027,2.99853h5.99682c0,-1.03612 -1.34205,-1.50017 -2.99835,-1.50017c-1.65607,0 -2.99847,0.46405 -2.99847,1.50017zM16.49496,19.49541h-14.99256v1.49975c0,0.82798 0.6712,1.49892 1.4994,1.49892h11.99364c0.82809,0 1.49952,-0.67094 1.49952,-1.49892zM16.49496,5.9972c0,-0.8284 -0.67097,-1.49975 -1.49952,-1.49975h-1.49918v4.50009h-1.49918v-4.50009h-5.99682v4.50009h-1.49929v-4.50009h-1.49918c-0.82821,0 -1.4994,0.67136 -1.4994,1.49975v11.99803h14.99256z" fill="#ffffff" fill-opacity="1"></path></g></g></svg>