<?xml version="1.0" encoding="UTF-8"?>
<svg id="SVGDoc" width="44" height="44" xmlns="http://www.w3.org/2000/svg" version="1.1" xmlns:xlink="http://www.w3.org/1999/xlink" xmlns:avocode="https://avocode.com/" viewBox="0 0 44 44"><defs></defs><desc>Generated with Avocode.</desc><g><g><title>icon</title><path d="M9.62494,17.70286c-0.00137,-3.29447 1.03523,-6.40491 2.9179,-8.75881c1.95499,-2.44198 4.58153,-3.78802 7.3946,-3.78802c5.68794,0 10.3125,5.62761 10.3125,12.54684c0,6.91798 -4.62456,12.54684 -10.3125,12.54684c-5.68726,0 -10.3125,-5.62761 -10.3125,-12.54684zM12.37221,17.70286c0.00275,5.40327 3.39592,9.79701 7.56523,9.79701c4.16931,0 7.56248,-4.39374 7.56248,-9.79701c0,-5.40244 -3.39317,-9.79701 -7.56248,-9.79701c-4.17206,0 -7.56523,4.39457 -7.56523,9.79701zM39.87499,40.15264c0,2.12167 -1.72817,3.84701 -3.85117,3.84701h-32.17552c-2.12151,0 -3.8483,-1.72534 -3.8483,-3.84701c0,-6.21837 5.05749,-11.27765 11.2738,-11.27765c0.76012,0 1.37501,0.61486 1.37501,1.37471c0,0.76026 -0.61489,1.37512 -1.37501,1.37512c-4.69963,0 -8.5239,3.82541 -8.5239,8.52783c0,0.60572 0.49358,1.09719 1.0984,1.09719h32.17552c0.60699,0 1.10115,-0.49438 1.10115,-1.09719c0,-4.70241 -3.82553,-8.52783 -8.52665,-8.52783c-0.76,0 -1.37501,-0.61486 -1.37501,-1.37512c0,-0.75985 0.61501,-1.37471 1.37501,-1.37471c6.217,0 11.27666,5.05928 11.27666,11.27765zM19.05991,3.14444c-0.38589,-0.65308 -0.17052,-1.49726 0.4842,-1.88362c1.39435,-0.82549 2.95464,-1.26087 4.51836,-1.26087c5.68794,0 10.3125,5.62886 10.3125,12.54684c0,1.17945 -0.13435,2.34186 -0.39345,3.45691c-0.149,0.63231 -0.71308,1.06021 -1.33747,1.06021c-0.10471,0 -0.20931,-0.01039 -0.31551,-0.03656c-0.73849,-0.17324 -1.19774,-0.91315 -1.0231,-1.65222c0.21217,-0.90899 0.31952,-1.85911 0.31952,-2.82835c0,-5.40078 -3.39317,-9.79576 -7.56248,-9.79576c-1.08627,0 -2.1357,0.29413 -3.11989,0.87783c-0.65071,0.38595 -1.49586,0.16909 -1.88267,-0.48441zM43.9999,34.73982c0,0.54797 -0.11147,1.07434 -0.33028,1.5683c-0.2282,0.51058 -0.73048,0.81676 -1.25679,0.81676c-0.18803,0 -0.37868,-0.03781 -0.55859,-0.1184c-0.69294,-0.30868 -1.00582,-1.11962 -0.69832,-1.81549c0.06443,-0.13793 0.09407,-0.29247 0.09407,-0.44826c0,-4.69992 -3.54904,-8.61798 -8.25005,-8.61798c-0.76,0 -1.37501,-0.61486 -1.37501,-1.37512c0,-0.75985 0.61501,-1.37471 1.37501,-1.37471c6.217,0 10.99995,5.15234 10.99995,11.3649z" fill="#000000" fill-opacity="1"></path><path d="M9.62494,17.70286c-0.00137,-3.29447 1.03523,-6.40491 2.9179,-8.75881c1.95499,-2.44198 4.58153,-3.78802 7.3946,-3.78802c5.68794,0 10.3125,5.62761 10.3125,12.54684c0,6.91798 -4.62456,12.54684 -10.3125,12.54684c-5.68726,0 -10.3125,-5.62761 -10.3125,-12.54684zM12.37221,17.70286c0.00275,5.40327 3.39592,9.79701 7.56523,9.79701c4.16931,0 7.56248,-4.39374 7.56248,-9.79701c0,-5.40244 -3.39317,-9.79701 -7.56248,-9.79701c-4.17206,0 -7.56523,4.39457 -7.56523,9.79701zM39.87499,40.15264c0,2.12167 -1.72817,3.84701 -3.85117,3.84701h-32.17552c-2.12151,0 -3.8483,-1.72534 -3.8483,-3.84701c0,-6.21837 5.05749,-11.27765 11.2738,-11.27765c0.76012,0 1.37501,0.61486 1.37501,1.37471c0,0.76026 -0.61489,1.37512 -1.37501,1.37512c-4.69963,0 -8.5239,3.82541 -8.5239,8.52783c0,0.60572 0.49358,1.09719 1.0984,1.09719h32.17552c0.60699,0 1.10115,-0.49438 1.10115,-1.09719c0,-4.70241 -3.82553,-8.52783 -8.52665,-8.52783c-0.76,0 -1.37501,-0.61486 -1.37501,-1.37512c0,-0.75985 0.61501,-1.37471 1.37501,-1.37471c6.217,0 11.27666,5.05928 11.27666,11.27765zM19.05991,3.14444c-0.38589,-0.65308 -0.17052,-1.49726 0.4842,-1.88362c1.39435,-0.82549 2.95464,-1.26087 4.51836,-1.26087c5.68794,0 10.3125,5.62886 10.3125,12.54684c0,1.17945 -0.13435,2.34186 -0.39345,3.45691c-0.149,0.63231 -0.71308,1.06021 -1.33747,1.06021c-0.10471,0 -0.20931,-0.01039 -0.31551,-0.03656c-0.73849,-0.17324 -1.19774,-0.91315 -1.0231,-1.65222c0.21217,-0.90899 0.31952,-1.85911 0.31952,-2.82835c0,-5.40078 -3.39317,-9.79576 -7.56248,-9.79576c-1.08627,0 -2.1357,0.29413 -3.11989,0.87783c-0.65071,0.38595 -1.49586,0.16909 -1.88267,-0.48441zM43.9999,34.73982c0,0.54797 -0.11147,1.07434 -0.33028,1.5683c-0.2282,0.51058 -0.73048,0.81676 -1.25679,0.81676c-0.18803,0 -0.37868,-0.03781 -0.55859,-0.1184c-0.69294,-0.30868 -1.00582,-1.11962 -0.69832,-1.81549c0.06443,-0.13793 0.09407,-0.29247 0.09407,-0.44826c0,-4.69992 -3.54904,-8.61798 -8.25005,-8.61798c-0.76,0 -1.37501,-0.61486 -1.37501,-1.37512c0,-0.75985 0.61501,-1.37471 1.37501,-1.37471c6.217,0 10.99995,5.15234 10.99995,11.3649z" fill="#c7b299" fill-opacity="1"></path></g></g></svg>