<?xml version="1.0" encoding="UTF-8"?>
<svg id="SVGDoc" width="44" height="44" xmlns="http://www.w3.org/2000/svg" version="1.1" xmlns:xlink="http://www.w3.org/1999/xlink" xmlns:avocode="https://avocode.com/" viewBox="0 0 44 44"><defs></defs><desc>Generated with Avocode.</desc><g><g><title>icon</title><path d="M43.99992,13.7499c0,12.44464 -8.00285,23.70235 -21.40583,30.11307c-0.1886,0.09098 -0.39196,0.13668 -0.59418,0.13668c-0.2021,0 -0.40546,-0.0457 -0.59406,-0.13668c-13.40366,-6.41072 -21.40594,-17.66843 -21.40594,-30.11307c0,-7.58352 6.16802,-13.74996 13.75008,-13.74996c2.98496,0 5.87254,0.97463 8.24993,2.76437c0.06317,-0.04611 0.12897,-0.08683 0.19146,-0.13253c0.20611,-0.14831 0.41222,-0.2958 0.62771,-0.43331c0.12085,-0.07852 0.24433,-0.14831 0.36518,-0.22268c0.22282,-0.13253 0.44312,-0.26672 0.67142,-0.38761c0.08457,-0.0457 0.17464,-0.08475 0.26047,-0.12671c0.4351,-0.21686 0.88348,-0.41087 1.34274,-0.58287c0.17464,-0.06522 0.34653,-0.13502 0.5238,-0.19277c0.19466,-0.06315 0.39196,-0.11674 0.59074,-0.17199c0.20943,-0.05775 0.41897,-0.11383 0.62977,-0.16202c0.1799,-0.04113 0.36381,-0.07935 0.55183,-0.11425c0.2552,-0.04653 0.51029,-0.08558 0.76801,-0.11674c0.15324,-0.02036 0.30487,-0.04238 0.45925,-0.0565c0.42034,-0.03822 0.84332,-0.06439 1.26766,-0.06439c7.58137,0 13.74996,6.16644 13.74996,13.74996zM41.2499,13.7499c0,-6.06549 -4.93469,-11.00014 -10.99995,-11.00014c-0.35728,0 -0.71171,0.02077 -1.06087,0.05359c-0.15839,0.0162 -0.31414,0.04238 -0.46989,0.06606c-0.18265,0.02617 -0.36667,0.05068 -0.54783,0.08392c-0.20142,0.03947 -0.39619,0.09057 -0.59361,0.14c-0.13287,0.03157 -0.26184,0.06481 -0.39471,0.1022c-0.21755,0.06315 -0.43236,0.13585 -0.6459,0.21271c-0.10334,0.03697 -0.20542,0.07312 -0.30487,0.113c-0.22682,0.08932 -0.44975,0.18861 -0.66994,0.29247c-0.08057,0.03864 -0.16239,0.07727 -0.24181,0.11716c-0.22957,0.11549 -0.4565,0.23971 -0.67795,0.37265c-0.06454,0.03739 -0.1276,0.07686 -0.19077,0.11674c-0.22957,0.14167 -0.45387,0.29455 -0.6728,0.45367c-0.05093,0.03781 -0.10059,0.07727 -0.15163,0.113c-0.22282,0.17033 -0.44312,0.34773 -0.65392,0.53634c-2.27726,2.01532 -3.72356,4.95293 -3.72356,8.22663c0,0.7586 -0.61432,1.37471 -1.37489,1.37471c-0.76069,0 -1.37501,-0.6161 -1.37501,-1.37471c0,-3.47478 1.30508,-6.64296 3.44021,-9.06666c-1.82213,-1.24883 -3.97133,-1.93348 -6.19022,-1.93348c-6.06525,0 -11.00006,4.93465 -11.00006,11.00014c0,11.17712 7.18449,21.358 19.24999,27.34704c12.06619,-5.98905 19.24999,-16.16993 19.24999,-27.34704zM38.5,13.7499c0,0.7586 -0.61512,1.37471 -1.37501,1.37471c-0.76,0 -1.37501,-0.6161 -1.37501,-1.37471c0,-3.03357 -2.46666,-5.50007 -5.50003,-5.50007c-0.76,0 -1.37501,-0.61652 -1.37501,-1.37512c0,-0.7586 0.61501,-1.37512 1.37501,-1.37512c4.54937,0 8.25005,3.70036 8.25005,8.25031z" fill="#000000" fill-opacity="1"></path><path d="M43.99992,13.7499c0,12.44464 -8.00285,23.70235 -21.40583,30.11307c-0.1886,0.09098 -0.39196,0.13668 -0.59418,0.13668c-0.2021,0 -0.40546,-0.0457 -0.59406,-0.13668c-13.40366,-6.41072 -21.40594,-17.66843 -21.40594,-30.11307c0,-7.58352 6.16802,-13.74996 13.75008,-13.74996c2.98496,0 5.87254,0.97463 8.24993,2.76437c0.06317,-0.04611 0.12897,-0.08683 0.19146,-0.13253c0.20611,-0.14831 0.41222,-0.2958 0.62771,-0.43331c0.12085,-0.07852 0.24433,-0.14831 0.36518,-0.22268c0.22282,-0.13253 0.44312,-0.26672 0.67142,-0.38761c0.08457,-0.0457 0.17464,-0.08475 0.26047,-0.12671c0.4351,-0.21686 0.88348,-0.41087 1.34274,-0.58287c0.17464,-0.06522 0.34653,-0.13502 0.5238,-0.19277c0.19466,-0.06315 0.39196,-0.11674 0.59074,-0.17199c0.20943,-0.05775 0.41897,-0.11383 0.62977,-0.16202c0.1799,-0.04113 0.36381,-0.07935 0.55183,-0.11425c0.2552,-0.04653 0.51029,-0.08558 0.76801,-0.11674c0.15324,-0.02036 0.30487,-0.04238 0.45925,-0.0565c0.42034,-0.03822 0.84332,-0.06439 1.26766,-0.06439c7.58137,0 13.74996,6.16644 13.74996,13.74996zM41.2499,13.7499c0,-6.06549 -4.93469,-11.00014 -10.99995,-11.00014c-0.35728,0 -0.71171,0.02077 -1.06087,0.05359c-0.15839,0.0162 -0.31414,0.04238 -0.46989,0.06606c-0.18265,0.02617 -0.36667,0.05068 -0.54783,0.08392c-0.20142,0.03947 -0.39619,0.09057 -0.59361,0.14c-0.13287,0.03157 -0.26184,0.06481 -0.39471,0.1022c-0.21755,0.06315 -0.43236,0.13585 -0.6459,0.21271c-0.10334,0.03697 -0.20542,0.07312 -0.30487,0.113c-0.22682,0.08932 -0.44975,0.18861 -0.66994,0.29247c-0.08057,0.03864 -0.16239,0.07727 -0.24181,0.11716c-0.22957,0.11549 -0.4565,0.23971 -0.67795,0.37265c-0.06454,0.03739 -0.1276,0.07686 -0.19077,0.11674c-0.22957,0.14167 -0.45387,0.29455 -0.6728,0.45367c-0.05093,0.03781 -0.10059,0.07727 -0.15163,0.113c-0.22282,0.17033 -0.44312,0.34773 -0.65392,0.53634c-2.27726,2.01532 -3.72356,4.95293 -3.72356,8.22663c0,0.7586 -0.61432,1.37471 -1.37489,1.37471c-0.76069,0 -1.37501,-0.6161 -1.37501,-1.37471c0,-3.47478 1.30508,-6.64296 3.44021,-9.06666c-1.82213,-1.24883 -3.97133,-1.93348 -6.19022,-1.93348c-6.06525,0 -11.00006,4.93465 -11.00006,11.00014c0,11.17712 7.18449,21.358 19.24999,27.34704c12.06619,-5.98905 19.24999,-16.16993 19.24999,-27.34704zM38.5,13.7499c0,0.7586 -0.61512,1.37471 -1.37501,1.37471c-0.76,0 -1.37501,-0.6161 -1.37501,-1.37471c0,-3.03357 -2.46666,-5.50007 -5.50003,-5.50007c-0.76,0 -1.37501,-0.61652 -1.37501,-1.37512c0,-0.7586 0.61501,-1.37512 1.37501,-1.37512c4.54937,0 8.25005,3.70036 8.25005,8.25031z" fill="#c7b299" fill-opacity="1"></path></g></g></svg>