<?xml version="1.0" encoding="UTF-8"?>
<svg id="SVGDoc" width="48" height="44" xmlns="http://www.w3.org/2000/svg" version="1.1" xmlns:xlink="http://www.w3.org/1999/xlink" xmlns:avocode="https://avocode.com/" viewBox="0 0 48 44"><defs></defs><desc>Generated with Avocode.</desc><g><g><title>icon</title><path d="M46.04334,42.74875c0,0.69088 -0.55252,1.2509 -1.23402,1.2509h-43.57544c-0.68138,0 -1.2339,-0.56002 -1.2339,-1.2509c0,-0.69088 0.55252,-1.2509 1.2339,-1.2509h43.57544c0.6815,0 1.23402,0.56002 1.23402,1.2509zM19.58586,16.39629c0.05402,-2.16197 0.81814,-4.32935 2.09656,-5.94667c1.94504,-2.46068 1.98738,-6.48592 0.08698,-8.28313c-0.49839,-0.47111 -0.52551,-1.26295 -0.06065,-1.76813c0.46497,-0.50518 1.24603,-0.5326 1.74419,-0.06149c3.16521,2.99369 2.62218,8.55691 0.1553,11.67731c-1.81812,2.2999 -2.27074,6.36793 -0.15518,8.36954c0.49828,0.47153 0.52517,1.26295 0.06031,1.76813c-0.24307,0.26422 -0.57243,0.39758 -0.90248,0.39758c-0.30178,0 -0.6039,-0.11134 -0.84171,-0.33651c-1.46713,-1.388 -2.2427,-3.45359 -2.1833,-5.81664zM47.99994,19.61432v2.40002c0,3.44029 -2.76054,6.23873 -6.15406,6.23873h-2.75459c-1.86996,5.27074 -6.85112,9.05087 -12.68623,9.05087h-6.76643c-7.43076,0 -13.4761,-6.12864 -13.4761,-13.66147v-12.41057c0,-0.69088 0.55252,-1.2509 1.23402,-1.2509h7.91531c1.60664,-2.47605 1.53477,-6.12739 -0.24902,-7.81451c-0.49816,-0.47153 -0.52517,-1.26295 -0.06031,-1.76813c0.46497,-0.50518 1.24592,-0.5326 1.74408,-0.06107c3.16441,2.99328 2.62161,8.55649 0.15541,11.6769c-1.81881,2.30032 -2.27154,6.36835 -0.15541,8.36954c0.49828,0.47153 0.5254,1.26295 0.06054,1.76813c-0.46497,0.50518 -1.24592,0.5326 -1.74419,0.06149c-1.46748,-1.38842 -2.24304,-3.454 -2.18399,-5.81705c0.03376,-1.34687 0.34321,-2.69623 0.88108,-3.91349h-5.12959v11.15967c0,6.15356 4.93835,11.15925 11.00819,11.15925h6.76643c6.06983,0 11.00819,-5.0061 11.00819,-11.15925v-11.15967h-9.2783c-0.6815,0 -1.23402,-0.56002 -1.23402,-1.2509c0,-0.69088 0.55252,-1.2509 1.23402,-1.2509h10.51231c0.68138,0 1.2339,0.56002 1.2339,1.2509v2.14328h1.96484c3.39317,0 6.15395,2.79885 6.15395,6.23914zM45.53191,19.61432c0,-2.0606 -1.65356,-3.73734 -3.68603,-3.73734h-1.96484v9.87428h1.96484c2.03247,0 3.68603,-1.67632 3.68603,-3.73692z" fill="#000000" fill-opacity="1"></path><path d="M46.04334,42.74875c0,0.69088 -0.55252,1.2509 -1.23402,1.2509h-43.57544c-0.68138,0 -1.2339,-0.56002 -1.2339,-1.2509c0,-0.69088 0.55252,-1.2509 1.2339,-1.2509h43.57544c0.6815,0 1.23402,0.56002 1.23402,1.2509zM19.58586,16.39629c0.05402,-2.16197 0.81814,-4.32935 2.09656,-5.94667c1.94504,-2.46068 1.98738,-6.48592 0.08698,-8.28313c-0.49839,-0.47111 -0.52551,-1.26295 -0.06065,-1.76813c0.46497,-0.50518 1.24603,-0.5326 1.74419,-0.06149c3.16521,2.99369 2.62218,8.55691 0.1553,11.67731c-1.81812,2.2999 -2.27074,6.36793 -0.15518,8.36954c0.49828,0.47153 0.52517,1.26295 0.06031,1.76813c-0.24307,0.26422 -0.57243,0.39758 -0.90248,0.39758c-0.30178,0 -0.6039,-0.11134 -0.84171,-0.33651c-1.46713,-1.388 -2.2427,-3.45359 -2.1833,-5.81664zM47.99994,19.61432v2.40002c0,3.44029 -2.76054,6.23873 -6.15406,6.23873h-2.75459c-1.86996,5.27074 -6.85112,9.05087 -12.68623,9.05087h-6.76643c-7.43076,0 -13.4761,-6.12864 -13.4761,-13.66147v-12.41057c0,-0.69088 0.55252,-1.2509 1.23402,-1.2509h7.91531c1.60664,-2.47605 1.53477,-6.12739 -0.24902,-7.81451c-0.49816,-0.47153 -0.52517,-1.26295 -0.06031,-1.76813c0.46497,-0.50518 1.24592,-0.5326 1.74408,-0.06107c3.16441,2.99328 2.62161,8.55649 0.15541,11.6769c-1.81881,2.30032 -2.27154,6.36835 -0.15541,8.36954c0.49828,0.47153 0.5254,1.26295 0.06054,1.76813c-0.46497,0.50518 -1.24592,0.5326 -1.74419,0.06149c-1.46748,-1.38842 -2.24304,-3.454 -2.18399,-5.81705c0.03376,-1.34687 0.34321,-2.69623 0.88108,-3.91349h-5.12959v11.15967c0,6.15356 4.93835,11.15925 11.00819,11.15925h6.76643c6.06983,0 11.00819,-5.0061 11.00819,-11.15925v-11.15967h-9.2783c-0.6815,0 -1.23402,-0.56002 -1.23402,-1.2509c0,-0.69088 0.55252,-1.2509 1.23402,-1.2509h10.51231c0.68138,0 1.2339,0.56002 1.2339,1.2509v2.14328h1.96484c3.39317,0 6.15395,2.79885 6.15395,6.23914zM45.53191,19.61432c0,-2.0606 -1.65356,-3.73734 -3.68603,-3.73734h-1.96484v9.87428h1.96484c2.03247,0 3.68603,-1.67632 3.68603,-3.73692z" fill="#c7b299" fill-opacity="1"></path></g></g></svg>