<?xml version="1.0" encoding="UTF-8"?>
<svg id="SVGDoc" width="54" height="44" xmlns="http://www.w3.org/2000/svg" version="1.1" xmlns:xlink="http://www.w3.org/1999/xlink" xmlns:avocode="https://avocode.com/" viewBox="0 0 54 44"><defs></defs><desc>Generated with Avocode.</desc><g><g><title>icon</title><path d="M53.99841,42.30381c0,0.9335 -0.75645,1.69127 -1.68823,1.69127h-50.61939c-0.93143,0 -1.68743,-0.75777 -1.68743,-1.69127c0,-0.93475 0.756,-1.69252 1.68743,-1.69252h50.61939c0.93178,0 1.68823,0.75777 1.68823,1.69252zM53.99841,33.84329c0,1.48064 0,0.75777 0,1.6921c0,0.93392 -0.75645,1.69169 -1.68823,1.69169h-50.61939c-0.93143,0 -1.68743,-0.75777 -1.68743,-1.69169c0,-0.93433 0,-0.31823 0,-1.6921c0,-14.38017 11.1898,-26.19346 25.30891,-27.07194c-0.00991,-0.12861 0.0013,-3.38429 0.0013,-3.38429h-3.37475c-0.93143,0 -1.68755,-0.75777 -1.68755,-1.69252c0,-0.9335 0.75611,-1.69127 1.68755,-1.69127h10.12379c0.93098,0 1.68755,0.75777 1.68755,1.69127c0,0.93475 -0.75657,1.69252 -1.68755,1.69252h-3.37509v3.38421c14.12006,0.87783 25.3109,12.69141 25.3109,27.07202zM50.62331,33.84329c0,-13.08234 -10.5756,-23.68822 -23.62267,-23.68822c-13.04649,0 -23.62267,10.60588 -23.62267,23.68822z" fill="#000000" fill-opacity="1"></path><path d="M53.99841,42.30381c0,0.9335 -0.75645,1.69127 -1.68823,1.69127h-50.61939c-0.93143,0 -1.68743,-0.75777 -1.68743,-1.69127c0,-0.93475 0.756,-1.69252 1.68743,-1.69252h50.61939c0.93178,0 1.68823,0.75777 1.68823,1.69252zM53.99841,33.84329c0,1.48064 0,0.75777 0,1.6921c0,0.93392 -0.75645,1.69169 -1.68823,1.69169h-50.61939c-0.93143,0 -1.68743,-0.75777 -1.68743,-1.69169c0,-0.93433 0,-0.31823 0,-1.6921c0,-14.38017 11.1898,-26.19346 25.30891,-27.07194c-0.00991,-0.12861 0.0013,-3.38429 0.0013,-3.38429h-3.37475c-0.93143,0 -1.68755,-0.75777 -1.68755,-1.69252c0,-0.9335 0.75611,-1.69127 1.68755,-1.69127h10.12379c0.93098,0 1.68755,0.75777 1.68755,1.69127c0,0.93475 -0.75657,1.69252 -1.68755,1.69252h-3.37509v3.38421c14.12006,0.87783 25.3109,12.69141 25.3109,27.07202zM50.62331,33.84329c0,-13.08234 -10.5756,-23.68822 -23.62267,-23.68822c-13.04649,0 -23.62267,10.60588 -23.62267,23.68822z" fill="#c7b299" fill-opacity="1"></path></g></g></svg>