<?xml version="1.0" encoding="UTF-8"?>
<svg id="SVGDoc" width="44" height="44" xmlns="http://www.w3.org/2000/svg" version="1.1" xmlns:xlink="http://www.w3.org/1999/xlink" xmlns:avocode="https://avocode.com/" viewBox="0 0 44 44"><defs></defs><desc>Generated with Avocode.</desc><g><g><title>icon</title><path d="M30.24751,24.74838c0,0.75943 -0.61535,1.37512 -1.37466,1.37512h-13.74733c-0.75897,0 -1.37478,-0.61569 -1.37478,-1.37512c0,-0.7586 0.61581,-1.37471 1.37478,-1.37471h13.74733c0.75932,0 1.37466,0.6161 1.37466,1.37471zM32.99696,16.50056c0,0.7586 -0.61535,1.37429 -1.37478,1.37429h-19.2461c-0.75897,0 -1.37478,-0.61569 -1.37478,-1.37429c0,-0.75943 0.61581,-1.37471 1.37478,-1.37471h19.2461c0.75943,0 1.37478,0.61527 1.37478,1.37471zM43.9953,19.24956c0,10.62956 -9.84718,19.24671 -21.996,19.24671c-1.40648,0 -2.77817,-0.12796 -4.11186,-0.34773l-9.63581,5.84655v-9.73428c-5.02441,-3.52754 -8.24821,-8.93621 -8.24821,-15.01125c0,-10.62998 9.84867,-19.24629 21.99589,-19.24629c12.14882,0 21.996,8.61632 21.996,19.24629zM41.24586,19.24956c0,-9.11028 -8.61717,-16.49688 -19.24656,-16.49688c-10.62962,0 -19.24656,7.3866 -19.24656,16.49688c0,5.5898 3.25264,10.52279 8.21411,13.50693l-0.08675,6.37624l6.47255,-3.89064c1.49036,0.31781 3.04081,0.50476 4.64664,0.50476c10.62939,0 19.24656,-7.3866 19.24656,-16.4973z" fill="#000000" fill-opacity="1"></path><path d="M30.24751,24.74838c0,0.75943 -0.61535,1.37512 -1.37466,1.37512h-13.74733c-0.75897,0 -1.37478,-0.61569 -1.37478,-1.37512c0,-0.7586 0.61581,-1.37471 1.37478,-1.37471h13.74733c0.75932,0 1.37466,0.6161 1.37466,1.37471zM32.99696,16.50056c0,0.7586 -0.61535,1.37429 -1.37478,1.37429h-19.2461c-0.75897,0 -1.37478,-0.61569 -1.37478,-1.37429c0,-0.75943 0.61581,-1.37471 1.37478,-1.37471h19.2461c0.75943,0 1.37478,0.61527 1.37478,1.37471zM43.9953,19.24956c0,10.62956 -9.84718,19.24671 -21.996,19.24671c-1.40648,0 -2.77817,-0.12796 -4.11186,-0.34773l-9.63581,5.84655v-9.73428c-5.02441,-3.52754 -8.24821,-8.93621 -8.24821,-15.01125c0,-10.62998 9.84867,-19.24629 21.99589,-19.24629c12.14882,0 21.996,8.61632 21.996,19.24629zM41.24586,19.24956c0,-9.11028 -8.61717,-16.49688 -19.24656,-16.49688c-10.62962,0 -19.24656,7.3866 -19.24656,16.49688c0,5.5898 3.25264,10.52279 8.21411,13.50693l-0.08675,6.37624l6.47255,-3.89064c1.49036,0.31781 3.04081,0.50476 4.64664,0.50476c10.62939,0 19.24656,-7.3866 19.24656,-16.4973z" fill="#c7b299" fill-opacity="1"></path></g></g></svg>